<mxfile host="65bd71144e">
    <diagram id="R5FdGdUN67r23RUZzTna" name="Page-1">
        <mxGraphModel dx="1210" dy="638" grid="1" gridSize="10" guides="1" tooltips="1" connect="1" arrows="1" fold="1" page="1" pageScale="1" pageWidth="850" pageHeight="1100" math="0" shadow="0">
            <root>
                <mxCell id="0"/>
                <mxCell id="1" parent="0"/>
                <mxCell id="2" value="Header" style="swimlane;startSize=60;" vertex="1" parent="1">
                    <mxGeometry x="90" y="70" width="670" height="720" as="geometry"/>
                </mxCell>
                <mxCell id="3" value="Navbar" style="rounded=0;whiteSpace=wrap;html=1;" vertex="1" parent="2">
                    <mxGeometry x="60" y="40" width="430" height="20" as="geometry"/>
                </mxCell>
                <mxCell id="4" value="Search bar" style="rounded=0;whiteSpace=wrap;html=1;" vertex="1" parent="2">
                    <mxGeometry x="510" y="40" width="120" height="20" as="geometry"/>
                </mxCell>
                <mxCell id="12" value="" style="rounded=0;whiteSpace=wrap;html=1;" vertex="1" parent="2">
                    <mxGeometry x="215" y="90" width="240" height="150" as="geometry"/>
                </mxCell>
                <mxCell id="14" value="Name" style="text;html=1;strokeColor=none;fillColor=none;align=center;verticalAlign=middle;whiteSpace=wrap;rounded=0;" vertex="1" parent="2">
                    <mxGeometry x="215" y="250" width="60" height="30" as="geometry"/>
                </mxCell>
                <mxCell id="15" value="Price" style="text;html=1;strokeColor=none;fillColor=none;align=center;verticalAlign=middle;whiteSpace=wrap;rounded=0;" vertex="1" parent="2">
                    <mxGeometry x="390" y="250" width="60" height="30" as="geometry"/>
                </mxCell>
                <mxCell id="16" value="&lt;h1&gt;Description&lt;/h1&gt;&lt;div&gt;Lorem ipsum&lt;/div&gt;" style="text;html=1;strokeColor=none;fillColor=none;spacing=5;spacingTop=-20;whiteSpace=wrap;overflow=hidden;rounded=0;" vertex="1" parent="2">
                    <mxGeometry x="220" y="290" width="240" height="70" as="geometry"/>
                </mxCell>
                <mxCell id="18" value="&lt;h1&gt;Reviews&lt;/h1&gt;" style="text;html=1;strokeColor=none;fillColor=none;spacing=5;spacingTop=-20;whiteSpace=wrap;overflow=hidden;rounded=0;" vertex="1" parent="2">
                    <mxGeometry x="100" y="380" width="115" height="50" as="geometry"/>
                </mxCell>
                <mxCell id="19" value="Review" style="rounded=0;whiteSpace=wrap;html=1;" vertex="1" parent="2">
                    <mxGeometry x="100" y="420" width="510" height="80" as="geometry"/>
                </mxCell>
                <mxCell id="30" value="Review" style="rounded=0;whiteSpace=wrap;html=1;" vertex="1" parent="2">
                    <mxGeometry x="100" y="510" width="510" height="80" as="geometry"/>
                </mxCell>
                <mxCell id="32" value="Add review" style="rounded=0;whiteSpace=wrap;html=1;" vertex="1" parent="2">
                    <mxGeometry x="490" y="380" width="80" height="30" as="geometry"/>
                </mxCell>
                <mxCell id="17" value="" style="endArrow=none;html=1;" edge="1" parent="1">
                    <mxGeometry width="50" height="50" relative="1" as="geometry">
                        <mxPoint x="730" y="440" as="sourcePoint"/>
                        <mxPoint x="130" y="440" as="targetPoint"/>
                    </mxGeometry>
                </mxCell>
                <mxCell id="31" value="Review" style="rounded=0;whiteSpace=wrap;html=1;" vertex="1" parent="1">
                    <mxGeometry x="190" y="680" width="510" height="80" as="geometry"/>
                </mxCell>
            </root>
        </mxGraphModel>
    </diagram>
</mxfile>